<svg xmlns="http://www.w3.org/2000/svg" xmlns:xlink="http://www.w3.org/1999/xlink" width="72" height="72" viewBox="0 0 72 72" fill="none"><g opacity="1" transform="translate(0 0)  rotate(0 36 36)"><path id="矩形 7" fill-rule="evenodd" style="fill:#FFCFCF" transform="translate(0 0)  rotate(0 36 36)" opacity="1" d="M52.8,0C59.52,0 62.88,0 65.45,1.31a12,12 0 0,1 5.24,5.24C72,9.12 72,12.48 72,19.2 L72,52.8C72,59.52 72,62.88 70.69,65.45a12,12 0 0,1 -5.24,5.24C62.88,72 59.52,72 52.8,72 L19.2,72C12.48,72 9.12,72 6.55,70.69a12,12 0 0,1 -5.24,-5.24C0,62.88 0,59.52 0 52.8 L0,19.2C0,12.48 0,9.12 1.31,6.55a12,12 0 0,1 5.24,-5.24C9.12,0 12.48,0 19.2,0Z " /><path id="火" fill-rule="evenodd" style="fill:#FF0000" transform="translate(19.51670240741987 17)  rotate(0 16.48329759258061 19)" opacity="1" d="M12.75,20.66C12.75,20.66 14.47,22.77 13.81,26.22C16.72,22.91 17.25,17.61 16.86,15.62C23.48,20.26 26.39,30.45 22.55,37.87C42.94,26.22 27.58,8.87 24.93,7.02C25.86,9 25.99,12.31 24.14,13.9C21.09,2.25 13.55,0 13.55,0C14.47,5.96 10.37,12.45 6.4,17.34C6.27,14.96 6.13,13.37 4.81,10.99C4.54,15.36 1.23,18.8 0.31,23.17C-0.88,29.13 1.23,33.37 9.31,38C6.79,32.7 8.12,29.66 10.1,26.88C12.22,23.7 12.75,20.66 12.75,20.66Z " /></g></svg>