<svg xmlns="http://www.w3.org/2000/svg" xmlns:xlink="http://www.w3.org/1999/xlink" width="24" height="24" viewBox="0 0 24 24" fill="none"><g opacity="1" transform="translate(0 0)  rotate(0 12 12)"><path id="路径" fill-rule="evenodd" style="fill:#2858AD" transform="translate(2.999975295151444 2)  rotate(0 9.000012352424255 10)" opacity="1" d="M0.99,20L17.01,20C17.56,20 18,19.56 18,19.01L18,13.24L16,15.24L16,18L2,18L2,7L7,7L7,2L16,2L16,6.76L18,4.76L18,0.99C18,0.46 17.55,0 17,0L6,0L0,6L0,18.99C0,19.26 0.1,19.51 0.29,19.7C0.47,19.89 0.73,20 0.99,20Z " /><path id="路径" fill-rule="evenodd" style="fill:#DC171B" transform="translate(13.998000000000047 8.807000000000016)  rotate(0 4.5969999999999995 4.596500000000001)" opacity="1" d="M7.78,0L0,7.78L0,9.19L1.42,9.19L9.19,1.41L7.78,0L7.78,0Z " /></g></svg>