<svg xmlns="http://www.w3.org/2000/svg" xmlns:xlink="http://www.w3.org/1999/xlink" width="24" height="24" viewBox="0 0 24 24" fill="none"><g opacity="1" transform="translate(0 0)  rotate(0 12 12)"><path id="形状" fill-rule="evenodd" style="fill:#2858AD" transform="translate(2 1)  rotate(0 10 10)" opacity="1" d="M4,12h5v4h-5z M19,2c0.5522,0 1,0.4478 1,1v16c0,0.5522 -0.4478,1 -1,1h-18c-0.5522,0 -1,-0.4478 -1,-1v-16c0,-0.5522 0.4478,-1 1,-1h4v-2h2v2h6v-2h2v2z M2,4v4h16v-4h-3v2h-2v-2h-6v2h-2v-2z M2,10v8h16v-8z " /><path id="路径" fill-rule="evenodd" style="fill:#D43030" transform="translate(6 13)  rotate(0 2.5 2)" opacity="1" d="M0,4L5,4L5,0L0,0L0,4Z " /></g></svg>