<svg xmlns="http://www.w3.org/2000/svg" xmlns:xlink="http://www.w3.org/1999/xlink" width="24" height="24" viewBox="0 0 24 24" fill="none"><g opacity="1" transform="translate(0 0)  rotate(0 12 12)"><g opacity="1" transform="translate(2 3)  rotate(0 10 10)"><path  id="路径" style="stroke:#2858AD; stroke-width:2; stroke-opacity:1; stroke-dasharray:0 0" transform="translate(0 3)  rotate(0 10 8.5)" d="M9,14.99995L9,17L11,17L11,14.99995L19,14.99995C19.5522,14.99995 20,14.552340000000001 20,14.00001L20,0L0,0L0,14.00001C0,14.55234 0.4478,14.99995 1,14.99995z " /><path id="路径" fill-rule="evenodd" style="fill:#2858AD" transform="translate(0 0)  rotate(0 10 1)" opacity="1" d="M0,2L20,2L20,0L0,0z " /><path id="路径" fill-rule="evenodd" style="fill:#D43030" transform="translate(11 7)  rotate(0 2.5 1)" opacity="1" d="M0,2L5,2L5,0L0,0z " /><path id="路径" fill-rule="evenodd" style="fill:#D43030" transform="translate(11 11)  rotate(0 2.5 1)" opacity="1" d="M0,2L5,2L5,0L0,0z " /><path id="路径" fill-rule="evenodd" style="fill:#D43030" transform="translate(4 7)  rotate(0 3 3)" opacity="1" d="M0,3C0,4.65684 1.34316,6 3,6C4.65684,6 6,4.65684 6,3L3,3L3,0C1.34316,0 0,1.34316 0,3z " /></g></g></svg>