<svg xmlns="http://www.w3.org/2000/svg" xmlns:xlink="http://www.w3.org/1999/xlink" width="24" height="24" viewBox="0 0 24 24" fill="none"><g opacity="1" transform="translate(0 0)  rotate(0 12 12)"><path  id="路径" style="stroke:#2858AD; stroke-width:2; stroke-opacity:1; stroke-dasharray:0 0" transform="translate(2.5 2.5)  rotate(0 4.25 4.25)" d="M4.25,0Z M0,4.25C0,6.6 1.9,8.5 4.25,8.5L8.5,8.5L8.5,4.25C8.5,1.9 6.6,0 4.25,0C1.9,0 0,1.9 0,4.25Z " /><path  id="路径" style="stroke:#2858AD; stroke-width:2; stroke-opacity:1; stroke-dasharray:0 0" transform="translate(2.5 13)  rotate(0 4.25 4.25)" d="M0,4.25C0,6.6 1.9,8.5 4.25,8.5C6.6,8.5 8.5,6.6 8.5,4.25L8.5,0L4.25,0C1.9,0 0,1.9 0,4.25Z " /><path  id="路径" style="stroke:#2858AD; stroke-width:2; stroke-opacity:1; stroke-dasharray:0 0" transform="translate(13 2.5)  rotate(0 4.25 4.25)" d="M0,4.25L0,8.5L4.25,8.5C6.6,8.5 8.5,6.6 8.5,4.25C8.5,1.9 6.6,0 4.25,0C1.9,0 0,1.9 0,4.25Z " /><path  id="路径" style="stroke:#DC171B; stroke-width:2; stroke-opacity:1; stroke-dasharray:0 0" transform="translate(13 13)  rotate(0 4.25 4.25)" d="M0,4.25C0,6.6 1.9,8.5 4.25,8.5C6.6,8.5 8.5,6.6 8.5,4.25C8.5,1.9 6.6,0 4.25,0L0,0L0,4.25Z " /></g></svg>