<svg xmlns="http://www.w3.org/2000/svg" xmlns:xlink="http://www.w3.org/1999/xlink" width="24" height="24" viewBox="0 0 24 24" fill="none"><g opacity="1" transform="translate(0 0)  rotate(0 12 12)"><path id="形状" fill-rule="evenodd" style="fill:#2858AD" transform="translate(1.9999986569118338 2.9999916384765797)  rotate(0 10.000000671544084 9.00000418076171)" opacity="1" d="M12,8.00002h2v2h-2z M6,8.00002h2v2h-2z M0,5.99401c-0.001,-1.59102 0.631,-3.11724 1.7566,-4.2417c1.1256,-1.12446 2.6524,-1.755 4.2434,-1.7523h8c3.313,0 6,2.69496 6,5.994v12.00601h-14c-3.313,0 -6,-2.69496 -6,-5.994z M18,5.99406c-0.00544,-2.20598 -1.79408,-3.99182 -4,-3.99406h-8c-1.06064,-0.00266 -2.07872,0.41706 -2.82928,1.16648c-0.75056,0.74942 -1.17184,1.76694 -1.17072,2.82758v6.01189c0.00544,2.20598 1.79408,3.99182 4,3.99406h12z " /><path id="路径" fill-rule="evenodd" style="fill:#DC171B" transform="translate(13 10)  rotate(0 2 2)" opacity="1" d="M2,4L2,4C2.53,4 3.04,3.79 3.41,3.41C3.79,3.04 4,2.53 4,2L4,2C4,1.47 3.79,0.96 3.41,0.59C3.04,0.21 2.53,0 2,0L2,0C1.47,0 0.96,0.21 0.59,0.59C0.21,0.96 0,1.47 0,2L0,2C0,2.53 0.21,3.04 0.59,3.41C0.96,3.79 1.47,4 2,4Z " /><path id="路径" fill-rule="evenodd" style="fill:#DC171B" transform="translate(7 10)  rotate(0 2 2)" opacity="1" d="M2,4L2,4C2.53,4 3.04,3.79 3.41,3.41C3.79,3.04 4,2.53 4,2L4,2C4,1.47 3.79,0.96 3.41,0.59C3.04,0.21 2.53,0 2,0L2,0C1.47,0 0.96,0.21 0.59,0.59C0.21,0.96 0,1.47 0,2L0,2C0,2.53 0.21,3.04 0.59,3.41C0.96,3.79 1.47,4 2,4Z " /></g></svg>