<svg xmlns="http://www.w3.org/2000/svg" xmlns:xlink="http://www.w3.org/1999/xlink" width="24" height="24" viewBox="0 0 24 24" fill="none"><defs><path id="path_0"
        transform="translate(0 0) rotate(0 4.397 4.5)"
        d="M0.99,5.31ZM0,5.88L1,7.62L1.99,7.04C2.39,7.42 2.87,7.7 3.4,7.86L3.4,9L5.4,9L5.4,7.86C5.92,7.7 6.4,7.42 6.8,7.04L7.79,7.62L8.79,5.88L7.8,5.31C7.93,4.78 7.93,4.22 7.8,3.69L8.79,3.12L7.79,1.38L6.8,1.96C6.41,1.58 5.93,1.3 5.4,1.14L5.4,0L3.4,0L3.4,1.14C2.87,1.3 2.39,1.58 1.99,1.96L1,1.38L0,3.12L0.99,3.69C0.87,4.22 0.87,4.78 0.99,5.31L0,5.88Z" /></defs><g opacity="1" transform="translate(0 0)  rotate(0 12 12)"><path id="形状" fill-rule="evenodd" style="fill:#2858AD" transform="translate(4 1)  rotate(0 7 10.5)" opacity="1" d="M8,13v2c-3.31368,0 -6,2.68632 -6,6h-2c0,-4.41824 3.58176,-8 8,-8z M10.59496,16.18901l-0.99196,-0.57303l0.99997,-1.73196l0.99205,0.57294c0.39811,-0.3771 0.87949,-0.6552 1.40502,-0.81198v-1.14498h1.99993v1.14498c0.53204,0.15804 1.01202,0.44001 1.40502,0.81198l0.99205,-0.57294l0.99997,1.73196l-0.99196,0.57303c0.12663,0.53325 0.12663,1.08873 0,1.62198l0.99196,0.57303l-0.99997,1.73196l-0.99205,-0.57294c-0.39811,0.3771 -0.87949,0.6552 -1.40502,0.81198v1.14498h-1.99993v-1.14498c-0.52553,-0.15678 -1.00692,-0.43488 -1.40502,-0.81198l-0.99205,0.57294l-0.99997,-1.73196l0.99196,-0.57204c-0.12672,-0.53352 -0.12672,-1.08945 0,-1.62297z M15.5,17c0,-0.82842 -0.67158,-1.5 -1.5,-1.5c-0.82842,0 -1.5,0.67158 -1.5,1.5c0,0.82842 0.67158,1.5 1.5,1.5c0.82842,0 1.5,-0.67158 1.5,-1.5z M8,12c-3.315,0 -6,-2.685 -6,-6c0,-3.315 2.685,-6 6,-6c3.315,0 6,2.685 6,6c0,3.315 -2.685,6 -6,6z M12,6c0,-2.21 -1.79,-4 -4,-4c-2.21,0 -4,1.79 -4,4c0,2.21 1.79,4 4,4c2.21,0 4,-1.79 4,-4z " /><g opacity="1" transform="translate(13.602999999999952 13.5)  rotate(0 4.397 4.5)"><mask id="mask-0" fill="white"><use xlink:href="#path_0"></use></mask><g mask="url(#mask-0)"><path id="路径" fill-rule="evenodd" style="fill:#DC171B" transform="translate(0 0)  rotate(0 4.397 4.5)" opacity="1" d="M1 7.62L0 5.88L0.99 5.31C0.87 4.78 0.87 4.22 0.99 3.69L0 3.12L1 1.38L1.99 1.96C2.39 1.58 2.87 1.3 3.4 1.14L3.4 0L5.4 0L5.4 1.14C5.93 1.3 6.41 1.58 6.8 1.96L7.79 1.38L8.79 3.12L7.8 3.69C7.93 4.22 7.93 4.78 7.8 5.31L8.79 5.88L7.79 7.62L6.8 7.04C6.4 7.42 5.92 7.7 5.4 7.86L5.4 9L3.4 9L3.4 7.86C2.87 7.7 2.39 7.42 1.99 7.04L1 7.62Z" /></g><g mask="url(#mask-0)"><path id="路径" fill-rule="evenodd" style="fill:#FFFFFF" transform="translate(2.897000000000048 3)  rotate(0 1.5 1.5)" opacity="1" d="M3,1.5C3,0.67 2.33,0 1.5,0C0.67,0 0,0.67 0,1.5C0,2.33 0.67,3 1.5,3C2.33,3 3,2.33 3,1.5Z " /></g></g></g></svg>