<svg xmlns="http://www.w3.org/2000/svg" xmlns:xlink="http://www.w3.org/1999/xlink" width="24" height="24" viewBox="0 0 24 24" fill="none"><g opacity="1" transform="translate(0 0)  rotate(0 12 12)"><path id="形状" fill-rule="evenodd" style="fill:#2858AD" transform="translate(1.9999999995772293 1.001825621194442)  rotate(0 10.000000000422775 11.138087189402778)" opacity="1" d="M13,14.49817c0,-0.82842 0.67158,-1.5 1.5,-1.5c0.82842,0 1.5,0.67158 1.5,1.5c0,0.82842 -0.67158,1.5 -1.5,1.5c-0.82842,0 -1.5,-0.67158 -1.5,-1.5z M5.5,6.99817c-0.82842,0 -1.5,-0.67158 -1.5,-1.5c0,-0.82842 0.67158,-1.5 1.5,-1.5c0.82842,0 1.5,0.67158 1.5,1.5c0,0.82842 -0.67158,1.5 -1.5,1.5z M5.5,13.27618l-3.89004,-3.88798c-2.14709,-2.14815 -2.14654,-5.63008 0.00121,-7.77756c2.14786,-2.14748 5.6298,-2.14748 7.77766,0c2.14775,2.14748 2.1483,5.62942 0.00121,7.77756l-3.89004,3.88997z M7.97485,3.02355c-1.36682,-1.36683 -3.58288,-1.36683 -4.9497,0c-1.36682,1.36675 -1.36689,3.58278 -0.00014,4.94961l2.47499,2.47502l2.47499,-2.47502c1.36675,-1.36683 1.36668,-3.58286 -0.00014,-4.94961z M18.39004,18.38823l-3.89004,3.88795l-3.89004,-3.88902c-2.14709,-2.14811 -2.14654,-5.63005 0.00121,-7.7775c2.14786,-2.14758 5.6298,-2.14758 7.77766,0c2.14775,2.14745 2.1483,5.62939 0.00121,7.7775z M14.5,19.44818l2.47499,-2.47502c1.36675,-1.36683 1.36668,-3.58286 -0.00014,-4.94961c-1.36682,-1.36683 -3.58288,-1.36683 -4.9497,0c-1.36682,1.36675 -1.36689,3.58278 -0.00014,4.94961z " /><path id="路径" fill-rule="evenodd" style="fill:#DC171B" transform="translate(6 5)  rotate(0 1.5 1.5)" opacity="1" d="M3,1.5C3,0.67 2.33,0 1.5,0C0.67,0 0,0.67 0,1.5C0,2.33 0.67,3 1.5,3C2.33,3 3,2.33 3,1.5Z " /><path id="路径" fill-rule="evenodd" style="fill:#DC171B" transform="translate(15 14)  rotate(0 1.5000000000000024 1.500000000000001)" opacity="1" d="M1.5 0C2.33 0 3 0.67 3 1.5C3 2.33 2.33 3 1.5 3C0.67 3 0 2.33 0 1.5C0 0.67 0.67 0 1.5 0Z" /></g></svg>