<svg xmlns="http://www.w3.org/2000/svg" xmlns:xlink="http://www.w3.org/1999/xlink" width="24" height="24" viewBox="0 0 24 24" fill="none"><g opacity="1" transform="translate(0 0)  rotate(0 12 12)"><g opacity="1" transform="translate(1 1.3516424812029157)  rotate(0 11 9.824178759398546)"><path  id="路径" style="stroke:#2858AD; stroke-width:2; stroke-opacity:1; stroke-dasharray:0 0" transform="translate(0 0)  rotate(0 11 9.824178759398546)" d="M11.67,0.26C11.29,-0.09 10.71,-0.09 10.33,0.26L0,9.65L3,9.65L3,18.65C3,19.2 3.45,19.65 4,19.65L18,19.65C18.55,19.65 19,19.2 19,18.65L19,9.65L22,9.65L11.67,0.26Z " /></g><path id="矩形 3" fill-rule="evenodd" style="fill:#DC171B" transform="translate(8 15)  rotate(0 4 1)" opacity="1" d="M1,2L7,2C7.27,2 7.52,1.89 7.71,1.71C7.89,1.52 8,1.27 8,1L8,1C8,0.73 7.89,0.48 7.71,0.29C7.52,0.11 7.27,0 7,0L1,0C0.73,0 0.48,0.11 0.29,0.29C0.11,0.48 0,0.73 0,1L0,1C0,1.27 0.11,1.52 0.29,1.71C0.48,1.89 0.73,2 1,2Z " /></g></svg>