<svg xmlns="http://www.w3.org/2000/svg" xmlns:xlink="http://www.w3.org/1999/xlink" width="72" height="72" viewBox="0 0 72 72" fill="none"><g opacity="1" transform="translate(0 0)  rotate(0 36 36)"><path id="矩形 7" fill-rule="evenodd" style="fill:#DFD1FF" transform="translate(0 0)  rotate(0 36 36)" opacity="1" d="M52.8,0C59.52,0 62.88,0 65.45,1.31a12,12 0 0,1 5.24,5.24C72,9.12 72,12.48 72,19.2 L72,52.8C72,59.52 72,62.88 70.69,65.45a12,12 0 0,1 -5.24,5.24C62.88,72 59.52,72 52.8,72 L19.2,72C12.48,72 9.12,72 6.55,70.69a12,12 0 0,1 -5.24,-5.24C0,62.88 0,59.52 0 52.8 L0,19.2C0,12.48 0,9.12 1.31,6.55a12,12 0 0,1 5.24,-5.24C9.12,0 12.48,0 19.2,0Z " /><path id="监测点" fill-rule="evenodd" style="fill:#7948EA" transform="translate(18.714285726562593 18.94134006200511)  rotate(0 17.28571427343763 17.05865993799438)" opacity="1" d="M28.6553 31.9703C28.3853 31.5203 27.8953 31.2603 27.3653 31.2703L25.9253 31.2703L25.9253 29.7703C29.6153 29.3403 32.2753 27.2403 34.5753 24.1703C31.9853 20.7003 28.9353 18.4803 24.4853 18.4803C20.0353 18.4803 16.9853 20.7003 14.4053 24.1703C16.6953 27.2403 19.3653 29.3403 23.0453 29.7703L23.0453 31.2703L21.6053 31.2703C20.8253 31.3003 20.2153 31.9303 20.2153 32.6903C20.2153 33.4603 20.8253 34.0903 21.6053 34.1203L27.3653 34.1203C27.8953 34.1303 28.3853 33.8703 28.6553 33.4203C28.9253 32.9703 28.9253 32.4203 28.6553 31.9703Z M27.2376 24.1628C27.2376 22.5928 26.0076 21.3228 24.4876 21.3228C22.9676 21.3228 21.7376 22.5928 21.7376 24.1628C21.7376 25.7328 22.9676 27.0128 24.4876 27.0128C26.0076 27.0128 27.2376 25.7328 27.2376 24.1628Z M14.77 33.6306C11.85 31.8706 10.08 29.5506 10.08 27.0106C10.08 24.3806 11.98 21.9906 15.07 20.2106C14.89 19.6206 14.34 19.1906 13.68 19.1906L1.44 19.1906C0.64 19.1906 0 19.8306 0 20.6106L0 32.6906C0 33.4806 0.64 34.1206 1.44 34.1206L13.69 34.1206C14.1 34.1206 14.5 33.9406 14.77 33.6306Z M2.62901e-13 1.42L2.62901e-13 13.5C2.62901e-13 14.29 0.65 14.93 1.44 14.93L13.68 14.93C14.48 14.93 15.13 14.29 15.13 13.5L15.13 1.42C15.13 0.64 14.48 0 13.68 0L1.44 0C0.64 0 2.62901e-13 0.64 2.62901e-13 1.42Z M19.4464 1.42L19.4464 13.5C19.4464 14.29 20.0964 14.93 20.8864 14.93L33.1264 14.93C33.9264 14.93 34.5764 14.29 34.5764 13.5L34.5764 1.42C34.5764 0.64 33.9264 0 33.1264 0L20.8864 0C20.0864 0 19.4464 0.64 19.4464 1.42Z " /></g></svg>