<svg xmlns="http://www.w3.org/2000/svg" xmlns:xlink="http://www.w3.org/1999/xlink" width="72" height="72" viewBox="0 0 72 72" fill="none"><g opacity="1" transform="translate(0 0)  rotate(0 36 36)"><path id="矩形 7" fill-rule="evenodd" style="fill:#E3FCF6" transform="translate(0 0)  rotate(0 36 36)" opacity="1" d="M52.8,0C59.52,0 62.88,0 65.45,1.31a12,12 0 0,1 5.24,5.24C72,9.12 72,12.48 72,19.2 L72,52.8C72,59.52 72,62.88 70.69,65.45a12,12 0 0,1 -5.24,5.24C62.88,72 59.52,72 52.8,72 L19.2,72C12.48,72 9.12,72 6.55,70.69a12,12 0 0,1 -5.24,-5.24C0,62.88 0,59.52 0 52.8 L0,19.2C0,12.48 0,9.12 1.31,6.55a12,12 0 0,1 5.24,-5.24C9.12,0 12.48,0 19.2,0Z " /><g opacity="1" transform="translate(16 19.098163146587467)  rotate(0 20 16.9018368534126)"><path id="路径 1" fill-rule="evenodd" style="fill:#0DCE97" transform="translate(5.709537079950657 6.838278369696223)  rotate(0 14.298429451334593 13.482697668564485)" opacity="1" d="M17.64,26.96C20.79,26.96 23.94,26.97 27.1,26.95C27.35,26.95 27.62,26.83 27.83,26.69C28.42,26.29 28.59,25.67 28.59,24.96C28.58,21.05 28.57,17.14 28.6,13.23C28.6,12.69 28.44,12.36 28.06,12.03C24.53,8.97 21.02,5.88 17.5,2.8C16.44,1.87 15.37,0.94 14.3,0C14.12,0.15 13.98,0.27 13.84,0.39C12.04,1.96 10.24,3.54 8.45,5.11C5.75,7.47 3.04,9.84 0.35,12.21C0.18,12.36 0.02,12.64 0.02,12.86C0,16.98 -0.01,21.1 0.01,25.22C0.02,26.31 0.7,26.96 1.73,26.96C4.7,26.97 7.67,26.96 10.65,26.96C10.8,26.96 10.96,26.95 11.16,26.94L11.16,16.9L17.46,16.9L17.46,26.91C17.54,26.94 17.59,26.96 17.64,26.96Z " /><path id="路径 2" fill-rule="evenodd" style="fill:#0DCE97" transform="translate(0 0)  rotate(0 20 9.962519689371456)" opacity="1" d="M16.34,7.78C17.55,6.71 18.77,5.63 20,4.55C20.22,4.74 20.41,4.9 20.6,5.07C26.05,9.9 31.51,14.74 36.96,19.57C37.53,20.08 37.92,20.04 38.4,19.45C38.79,18.97 39.16,18.47 39.55,17.99C40.18,17.2 40.16,16.87 39.41,16.21C37.87,14.85 36.35,13.48 34.79,12.15C34.41,11.83 34.28,11.5 34.28,11C34.3,7.74 34.3,4.47 34.29,1.21C34.29,0.38 34.04,0.11 33.31,0.11C31.88,0.1 30.46,0.11 29.04,0.11C28.12,0.11 27.91,0.34 27.9,1.31C27.9,2.84 27.9,4.37 27.9,6.02C27.73,5.87 27.64,5.8 27.55,5.73C25.78,4.15 24,2.58 22.23,1C20.73,-0.33 19.27,-0.33 17.78,0.99C14.48,3.92 11.18,6.84 7.88,9.76C5.41,11.95 2.93,14.13 0.46,16.33C-0.12,16.85 -0.14,17.24 0.34,17.85C0.75,18.38 1.17,18.9 1.58,19.43C2.09,20.05 2.46,20.08 3.06,19.55C7.49,15.63 11.91,11.7 16.34,7.78Z " /></g></g></svg>