<svg xmlns="http://www.w3.org/2000/svg" xmlns:xlink="http://www.w3.org/1999/xlink" width="72" height="72" viewBox="0 0 72 72" fill="none"><defs><rect id="path_0" x="0" y="0" width="36" height="35.755577109602314" /></defs><g opacity="1" transform="translate(0 0)  rotate(0 36 36)"><path id="矩形 7" fill-rule="evenodd" style="fill:#E6F1FF" transform="translate(0 0)  rotate(0 36 36)" opacity="1" d="M52.8,0C59.52,0 62.88,0 65.45,1.31a12,12 0 0,1 5.24,5.24C72,9.12 72,12.48 72,19.2 L72,52.8C72,59.52 72,62.88 70.69,65.45a12,12 0 0,1 -5.24,5.24C62.88,72 59.52,72 52.8,72 L19.2,72C12.48,72 9.12,72 6.55,70.69a12,12 0 0,1 -5.24,-5.24C0,62.88 0,59.52 0 52.8 L0,19.2C0,12.48 0,9.12 1.31,6.55a12,12 0 0,1 5.24,-5.24C9.12,0 12.48,0 19.2,0Z " /><g opacity="1" transform="translate(18 18.122211445199355)  rotate(0 18 17.877788554801157)"><mask id="bg-mask-0" fill="white"><use xlink:href="#path_0"></use></mask><g mask="url(#bg-mask-0)" ><path id="路径 1" fill-rule="evenodd" style="fill:#2A82E4" transform="translate(1.3560901454898158 19.430511782735195)  rotate(0 5.657156100872939 4.8412418525703185)" opacity="1" d="M9.06,9.68L11.31,0.66L8.68,0L6.94,6.97L0,6.97L0,9.68L9.06,9.68Z " /><path id="01" fill-rule="evenodd" style="fill:#2A82E4" transform="translate(0 0)  rotate(0 18.002774863239576 17.877788554801157)" opacity="1" d="M0 35.7582L2.71 35.7582L2.71 19.7582L0 19.7582L0 35.7582Z M4.56 7.62L17.85 15.3L16.5 17.64L3.2 9.97L0 15.51L22.99 28.78L33.98 14.45L8.95 0L4.56 7.62Z M28.2707 28.715L36.0007 19.315L33.9107 17.595L26.1807 26.985L28.2707 28.715Z " /></g></g></g></svg>