<svg xmlns="http://www.w3.org/2000/svg" xmlns:xlink="http://www.w3.org/1999/xlink" width="72" height="72" viewBox="0 0 72 72" fill="none"><g opacity="1" transform="translate(0 0)  rotate(0 36 36)"><path id="矩形 7" fill-rule="evenodd" style="fill:#DFD1FF" transform="translate(0 0)  rotate(0 36 36)" opacity="1" d="M52.8,0C59.52,0 62.88,0 65.45,1.31a12,12 0 0,1 5.24,5.24C72,9.12 72,12.48 72,19.2 L72,52.8C72,59.52 72,62.88 70.69,65.45a12,12 0 0,1 -5.24,5.24C62.88,72 59.52,72 52.8,72 L19.2,72C12.48,72 9.12,72 6.55,70.69a12,12 0 0,1 -5.24,-5.24C0,62.88 0,59.52 0 52.8 L0,19.2C0,12.48 0,9.12 1.31,6.55a12,12 0 0,1 5.24,-5.24C9.12,0 12.48,0 19.2,0Z " /><path id="企业" fill-rule="evenodd" style="fill:#7948EA" transform="translate(18.173315976124286 18)  rotate(0 17.826684023875874 18)" opacity="1" d="M0 31.93L0 34.24C0 35.21 0.79 36 1.76 36L33.89 36C34.86 36 35.65 35.21 35.65 34.24L35.65 31.93C35.65 30.96 34.86 30.17 33.89 30.17L32.79 30.17L32.79 14.1C32.79 13.12 32 12.34 31.02 12.34L23.13 12.34L23.13 1.76C23.13 0.79 22.34 0 21.37 0L3.92 0C2.95 0 2.16 0.79 2.16 1.76L2.16 30.17L1.76 30.17C0.79 30.17 0 30.96 0 31.93Z M18.0832 23.1994C18.0832 22.2294 17.2932 21.4394 16.3132 21.4394L8.97316 21.4394C8.00316 21.4394 7.21316 22.2294 7.21316 23.1994L7.21316 23.7294C7.21316 24.6994 8.00316 25.4894 8.97316 25.4894L16.3132 25.4894C17.2932 25.4894 18.0832 24.6994 18.0832 23.7294L18.0832 23.1994Z M18.0832 15.5047C18.0832 14.5347 17.2932 13.7447 16.3132 13.7447L8.97316 13.7447C8.00316 13.7447 7.21316 14.5347 7.21316 15.5047L7.21316 16.0347C7.21316 17.0047 8.00316 17.7947 8.97316 17.7947L16.3132 17.7947C17.2932 17.7947 18.0832 17.0047 18.0832 16.0347L18.0832 15.5047Z M18.0832 7.22273C18.0832 6.25273 17.2932 5.46273 16.3132 5.46273L8.97316 5.46273C8.00316 5.46273 7.21316 6.25273 7.21316 7.22273L7.21316 7.75273C7.21316 8.72273 8.00316 9.51273 8.97316 9.51273L16.3132 9.51273C17.2932 9.51273 18.0832 8.72273 18.0832 7.75273L18.0832 7.22273Z M30.7929 25.4056C30.7929 24.5956 30.1329 23.9356 29.3229 23.9356L24.6229 23.9356C23.8129 23.9356 23.1529 24.5956 23.1529 25.4056C23.1529 26.2156 23.8129 26.8756 24.6229 26.8756L29.3229 26.8756C30.1329 26.8756 30.7929 26.2156 30.7929 25.4056Z M30.7929 19.473C30.7929 18.663 30.1329 18.003 29.3229 18.003L24.6229 18.003C23.8129 18.003 23.1529 18.663 23.1529 19.473C23.1529 20.283 23.8129 20.943 24.6229 20.943L29.3229 20.943C30.1329 20.943 30.7929 20.283 30.7929 19.473Z " /></g></svg>