<svg xmlns="http://www.w3.org/2000/svg" xmlns:xlink="http://www.w3.org/1999/xlink" width="72" height="72" viewBox="0 0 72 72" fill="none"><g opacity="1" transform="translate(0 0)  rotate(0 36 36)"><path id="矩形 7" fill-rule="evenodd" style="fill:#E3FCF6" transform="translate(0 0)  rotate(0 36 36)" opacity="1" d="M52.8,0C59.52,0 62.88,0 65.45,1.31a12,12 0 0,1 5.24,5.24C72,9.12 72,12.48 72,19.2 L72,52.8C72,59.52 72,62.88 70.69,65.45a12,12 0 0,1 -5.24,5.24C62.88,72 59.52,72 52.8,72 L19.2,72C12.48,72 9.12,72 6.55,70.69a12,12 0 0,1 -5.24,-5.24C0,62.88 0,59.52 0 52.8 L0,19.2C0,12.48 0,9.12 1.31,6.55a12,12 0 0,1 5.24,-5.24C9.12,0 12.48,0 19.2,0Z " /><g opacity="1" transform="translate(17 21.793798193364637)  rotate(0 19 14.206201806635521)"><path id="路径 1" fill-rule="evenodd" style="fill:#0DCE97" transform="translate(0 0)  rotate(0 19.000000000000036 14.206201806635528)" opacity="1" d="M1.9,28.41L36.1,28.41C37.15,28.41 38,27.56 38,26.51L38,1.81C37.95,0.8 37.12,0 36.1,0C35.09,0 34.25,0.8 34.21,1.81L34.21,18.91L3.8,18.91L3.79,1.81C3.75,0.8 2.91,0 1.9,0C0.88,0 0.05,0.8 0,1.81L0,26.51C0,27.56 0.85,28.41 1.9,28.41Z " /><path id="路径 2" fill-rule="evenodd" style="fill:#0DCE97" transform="translate(5.714867525434617 12.0262308981788)  rotate(0 13.286119396317721 2.103429084480796)" opacity="1" d="M1.68,0.71L0.39,1.88C-0.05,2.32 -0.13,3.02 0.2,3.55C0.34,3.79 0.58,3.96 0.85,4.01C1.12,4.05 1.4,3.96 1.6,3.77L2.9,2.61C3.21,2.31 3.7,2.31 4.01,2.61L5.01,3.5C6,4.44 7.56,4.44 8.55,3.5L9.55,2.61C9.86,2.31 10.35,2.31 10.67,2.61L11.66,3.5L11.67,3.5C12.15,3.94 12.78,4.19 13.44,4.2C14.09,4.19 14.72,3.94 15.2,3.49L16.2,2.6C16.51,2.31 17,2.31 17.31,2.6L18.31,3.49C19.3,4.44 20.86,4.44 21.85,3.49L22.85,2.6C23.17,2.31 23.65,2.31 23.97,2.6L24.97,3.49C25.17,3.69 25.45,3.77 25.72,3.73C26,3.68 26.24,3.52 26.37,3.27C26.7,2.74 26.62,2.04 26.18,1.6L25.18,0.71C24.19,-0.24 22.63,-0.24 21.64,0.71L20.64,1.6C20.33,1.89 19.84,1.89 19.52,1.6L18.52,0.71C17.53,-0.23 15.98,-0.23 14.99,0.71L13.99,1.6C13.67,1.89 13.18,1.89 12.87,1.6L11.87,0.71C10.88,-0.23 9.32,-0.23 8.33,0.71L7.33,1.6C7.02,1.89 6.53,1.89 6.22,1.6L5.22,0.71C4.23,-0.24 2.67,-0.24 1.68,0.71Z " /><path id="路径 3" fill-rule="evenodd" style="fill:#0DCE97" transform="translate(5.714867525434617 7.154004899633577)  rotate(0 13.286119396317721 2.1031581551818954)" opacity="1" d="M11.67,3.5C12.15,3.94 12.78,4.19 13.44,4.2C14.09,4.19 14.72,3.94 15.2,3.5L16.2,2.6C16.51,2.31 17,2.31 17.31,2.6L18.31,3.5C19.31,4.44 20.86,4.44 21.85,3.5L22.85,2.6C23.17,2.31 23.65,2.31 23.97,2.6L24.97,3.5C25.17,3.69 25.45,3.77 25.72,3.73C26,3.69 26.24,3.52 26.37,3.27C26.7,2.74 26.62,2.04 26.18,1.6L25.18,0.71C24.19,-0.24 22.63,-0.24 21.64,0.71L20.64,1.6C20.33,1.89 19.84,1.89 19.52,1.6L18.52,0.71C17.53,-0.24 15.98,-0.24 14.99,0.71L13.99,1.6C13.67,1.89 13.18,1.89 12.87,1.6L11.87,0.71C10.88,-0.24 9.32,-0.24 8.33,0.71L7.33,1.6C7.02,1.89 6.53,1.89 6.22,1.6L5.22,0.71C4.23,-0.24 2.67,-0.24 1.68,0.71L0.39,1.88C-0.05,2.32 -0.13,3.02 0.2,3.55C0.34,3.8 0.58,3.96 0.85,4.01C1.12,4.05 1.4,3.97 1.6,3.77L2.9,2.61C3.21,2.31 3.7,2.31 4.01,2.61L5.01,3.5C6,4.44 7.56,4.44 8.55,3.5L9.55,2.61C9.86,2.31 10.35,2.31 10.67,2.61L11.66,3.5L11.67,3.5Z " /><path id="路径 4" fill-rule="evenodd" style="fill:#0DCE97" transform="translate(5.714867525434617 2.2812370424906767)  rotate(0 13.286119396317721 2.1031581551818923)" opacity="1" d="M25.18,0.71C24.19,-0.24 22.63,-0.24 21.64,0.71L20.64,1.6C20.33,1.89 19.84,1.89 19.52,1.6L18.52,0.71C17.53,-0.24 15.98,-0.24 14.99,0.71L13.99,1.6C13.67,1.89 13.18,1.89 12.87,1.6L11.87,0.71C10.88,-0.24 9.32,-0.24 8.33,0.71L7.33,1.6C7.02,1.89 6.53,1.89 6.22,1.6L5.22,0.71C4.23,-0.24 2.67,-0.24 1.68,0.71L0.39,1.88C-0.05,2.32 -0.13,3.02 0.2,3.55C0.34,3.8 0.58,3.96 0.85,4.01C1.12,4.05 1.4,3.97 1.6,3.77L2.9,2.61C3.21,2.31 3.7,2.31 4.01,2.61L5.01,3.5C6,4.44 7.56,4.44 8.55,3.5L9.55,2.61C9.86,2.31 10.35,2.31 10.67,2.61L11.66,3.5L11.67,3.5C12.15,3.95 12.78,4.2 13.44,4.2C14.09,4.2 14.72,3.94 15.2,3.5L16.2,2.6C16.51,2.31 17,2.31 17.31,2.6L18.31,3.5C19.31,4.44 20.86,4.44 21.85,3.5L22.85,2.6C23.17,2.31 23.65,2.31 23.97,2.6L24.97,3.5C25.17,3.69 25.45,3.77 25.72,3.73C26,3.69 26.24,3.52 26.37,3.27C26.7,2.74 26.62,2.04 26.18,1.6L25.18,0.71Z " /></g></g></svg>