<svg xmlns="http://www.w3.org/2000/svg" xmlns:xlink="http://www.w3.org/1999/xlink" width="72" height="72" viewBox="0 0 72 72" fill="none"><g opacity="1" transform="translate(0 0)  rotate(0 36 36)"><path id="矩形 7" fill-rule="evenodd" style="fill:#FFF2E6" transform="translate(0 0)  rotate(0 36 36)" opacity="1" d="M52.8,0C59.52,0 62.88,0 65.45,1.31a12,12 0 0,1 5.24,5.24C72,9.12 72,12.48 72,19.2 L72,52.8C72,59.52 72,62.88 70.69,65.45a12,12 0 0,1 -5.24,5.24C62.88,72 59.52,72 52.8,72 L19.2,72C12.48,72 9.12,72 6.55,70.69a12,12 0 0,1 -5.24,-5.24C0,62.88 0,59.52 0 52.8 L0,19.2C0,12.48 0,9.12 1.31,6.55a12,12 0 0,1 5.24,-5.24C9.12,0 12.48,0 19.2,0Z " /><path id="icon_学校" fill-rule="evenodd" style="fill:#FF8D1A" transform="translate(16.83333337260592 17.66658719268503)  rotate(0 19.166666627394076 18.33341280731497)" opacity="1" d="M30 36.67L30 32.5C30 32.04 30.37 31.67 30.83 31.67C31.29 31.67 31.67 32.04 31.67 32.5L31.67 36.67L37.5 36.67C37.96 36.67 38.33 36.29 38.33 35.83C38.33 35.37 37.96 35 37.5 35L36.67 35L36.67 16.67L37.5 16.67C37.79 16.67 38.06 16.52 38.21 16.27C38.36 16.03 38.37 15.72 38.25 15.46L35.26 9.49C34.91 8.78 34.18 8.33 33.39 8.33L22.85 8.33L20.64 6.13C20.51 6 20.37 5.89 20.21 5.8C20.14 5.76 20.07 5.72 20 5.69L20 2.85L21.91 4.76C22.07 4.91 22.28 5 22.5 5L25.83 5C26.29 5 26.67 4.63 26.67 4.17C26.67 3.71 26.29 3.33 25.83 3.33L22.85 3.33L19.76 0.24C19.52 0.01 19.16 -0.07 18.85 0.06C18.54 0.19 18.33 0.5 18.33 0.83L18.33 5.69C18.27 5.72 18.21 5.75 18.16 5.78C17.99 5.87 17.83 5.99 17.69 6.13L15.49 8.33L4.94 8.33C4.15 8.33 3.43 8.78 3.08 9.49L0.09 15.46C-0.04 15.72 -0.03 16.03 0.12 16.27C0.28 16.52 0.54 16.67 0.83 16.67L1.67 16.67L1.67 35L0.83 35C0.37 35 0 35.37 0 35.83C0 36.29 0.37 36.67 0.83 36.67L6.67 36.67L6.67 32.5C6.67 32.04 7.04 31.67 7.5 31.67C7.96 31.67 8.33 32.04 8.33 32.5L8.33 36.67L15.83 36.67C16.29 36.67 16.67 36.29 16.67 35.83L16.67 30.83C16.67 29.45 17.79 28.33 19.17 28.33C20.55 28.33 21.67 29.45 21.67 30.83L21.67 35.83C21.67 36.29 22.04 36.67 22.5 36.67L30 36.67Z M8.33667 26.6668L6.66667 26.6668L6.66667 28.3368L8.33667 28.3368L8.33667 26.6668Z M8.33667 20.0002L6.66667 20.0002L6.66667 23.3302L8.33667 23.3302L8.33667 20.0002Z M13.3367 26.6668L11.6667 26.6668L11.6667 28.3368L13.3367 28.3368L13.3367 26.6668Z M13.3367 20.0002L11.6667 20.0002L11.6667 23.3302L13.3367 23.3302L13.3367 20.0002Z M22.5033 17.4968C22.5033 15.6568 21.0033 14.1668 19.1633 14.1668C17.3233 14.1668 15.8333 15.6568 15.8333 17.4968C15.8333 19.3368 17.3233 20.8368 19.1633 20.8368C21.0033 20.8268 22.4933 19.3368 22.5033 17.4968Z M26.67 26.6668L25 26.6668L25 28.3368L26.67 28.3368L26.67 26.6668Z M26.67 20.0002L25 20.0002L25 23.3302L26.67 23.3302L26.67 20.0002Z M31.67 26.6668L30 26.6668L30 28.3368L31.67 28.3368L31.67 26.6668Z M31.67 20.0002L30 20.0002L30 23.3302L31.67 23.3302L31.67 20.0002Z M19.17 15.0002C18.71 15.0002 18.33 15.3702 18.33 15.8302L18.33 16.6702C17.87 16.6702 17.5 17.0402 17.5 17.5002C17.5 17.9602 17.87 18.3302 18.33 18.3302L19.17 18.3302C19.63 18.3302 20 17.9602 20 17.5002L20 15.8302C20 15.3702 19.63 15.0002 19.17 15.0002Z " /></g></svg>