<svg xmlns="http://www.w3.org/2000/svg" xmlns:xlink="http://www.w3.org/1999/xlink" width="72" height="72" viewBox="0 0 72 72" fill="none"><defs><path id="path_0"
        transform="translate(1.2764423076923077 0.06490384615384615) rotate(0 16.745192307692307 16.572115384615383)"
        d="M1.56,18.11L15.04,18.11L15.04,31.59C15.04,32.45 15.73,33.14 16.59,33.14C17.46,33.14 18.15,32.45 18.15,31.59L18.15,18.11L31.93,18.11C32.79,18.11 33.49,17.41 33.49,16.55C33.49,15.69 32.79,14.99 31.93,14.99L18.15,14.99L18.15,1.56C18.15,0.7 17.46,0 16.59,0C15.73,0 15.04,0.7 15.04,1.56L15.04,14.99L1.56,14.99C0.7,14.99 0,15.69 0,16.55C0,17.41 0.7,18.11 1.56,18.11Z" /></defs><g opacity="1" transform="translate(0 0)  rotate(0 36 36)"><path id="Rectangle 72 Copy 15" fill-rule="evenodd" style="fill:#2A82E4" transform="translate(0 0)  rotate(0 36 36)" opacity="0.1" d="M4,72L68,72C70.21,72 72,70.21 72,68L72,4C72,1.79 70.21,0 68,0L4,0C1.79,0 0,1.79 0,4L0,68C0,70.21 1.79,72 4,72Z " /><path  id="Rectangle 72 Copy 15" style="stroke:#2A82E4; stroke-width:1; stroke-opacity:1; stroke-dasharray:3 2" transform="translate(0 0)  rotate(0 36 36)" d="M4,72L68,72C70.21,72 72,70.21 72,68L72,4C72,1.79 70.21,0 68,0L4,0C1.79,0 0,1.79 0,4L0,68C0,70.21 1.79,72 4,72Z " /><g opacity="1" transform="translate(18 19.384615384615245)  rotate(0 18 16.615384615384613)"><mask id="mask-0" fill="white"><use xlink:href="#path_0"></use></mask><g mask="url(#mask-0)"><path id="Mask" fill-rule="evenodd" style="fill:#2A82E4" transform="translate(1.2764423076923077 0.06490384615384615)  rotate(0 16.745192307692307 16.572115384615383)" opacity="1" d="M1.56,18.11L15.04,18.11L15.04,31.59C15.04,32.45 15.73,33.14 16.59,33.14C17.46,33.14 18.15,32.45 18.15,31.59L18.15,18.11L31.93,18.11C32.79,18.11 33.49,17.41 33.49,16.55C33.49,15.69 32.79,14.99 31.93,14.99L18.15,14.99L18.15,1.56C18.15,0.7 17.46,0 16.59,0C15.73,0 15.04,0.7 15.04,1.56L15.04,14.99L1.56,14.99C0.7,14.99 0,15.69 0,16.55C0,17.41 0.7,18.11 1.56,18.11Z " /></g></g></g></svg>