<svg xmlns="http://www.w3.org/2000/svg" xmlns:xlink="http://www.w3.org/1999/xlink" width="72" height="72" viewBox="0 0 72 72" fill="none"><g opacity="1" transform="translate(0 0)  rotate(0 36 36)"><path id="矩形 7" fill-rule="evenodd" style="fill:#FFF2E6" transform="translate(0 0)  rotate(0 36 36)" opacity="1" d="M52.8,0C59.52,0 62.88,0 65.45,1.31a12,12 0 0,1 5.24,5.24C72,9.12 72,12.48 72,19.2 L72,52.8C72,59.52 72,62.88 70.69,65.45a12,12 0 0,1 -5.24,5.24C62.88,72 59.52,72 52.8,72 L19.2,72C12.48,72 9.12,72 6.55,70.69a12,12 0 0,1 -5.24,-5.24C0,62.88 0,59.52 0 52.8 L0,19.2C0,12.48 0,9.12 1.31,6.55a12,12 0 0,1 5.24,-5.24C9.12,0 12.48,0 19.2,0Z " /><path id="icon_监测" fill-rule="evenodd" style="fill:#FF8D1A" transform="translate(22 18)  rotate(0 14.250000013916015 19.000000000000004)" opacity="1" d="M27.7307 36.0578C28.4707 34.8478 28.5407 33.3378 27.9107 32.0578L25.5907 27.4378C25.5507 27.3478 25.5007 27.2678 25.4507 27.1878C22.7507 29.4878 19.2607 30.8778 15.4407 30.8778L13.0607 30.8778C9.39067 30.8778 5.84067 29.5778 3.05067 27.1878C3.00067 27.2678 2.95067 27.3478 2.91067 27.4378L0.590673 32.0578C-0.0393268 33.3378 0.0306733 34.8478 0.770673 36.0578C1.52067 37.2678 2.84067 37.9978 4.26067 37.9978L24.2407 37.9978C25.6607 37.9978 26.9807 37.2678 27.7307 36.0578Z M0 14.25C0 22.12 6.38 28.5 14.25 28.5C22.12 28.5 28.5 22.12 28.5 14.25C28.5 6.38 22.12 0 14.25 0C6.38 0 0 6.38 0 14.25Z M19.3931 19.5975C20.4531 17.7575 20.4531 15.4975 19.3931 13.6575C18.3331 11.8175 16.3731 10.6875 14.2531 10.6875C10.9731 10.6875 8.31308 13.3475 8.31308 16.6275C8.31308 19.9075 10.9731 22.5575 14.2531 22.5675C16.3731 22.5675 18.3331 21.4275 19.3931 19.5975Z M16.7505 16.63C16.7505 15.31 15.6905 14.25 14.3805 14.25C13.5305 14.25 12.7405 14.7 12.3205 15.44C11.8905 16.17 11.8905 17.08 12.3205 17.81C12.7405 18.55 13.5305 19 14.3805 19C15.6905 19 16.7505 17.94 16.7505 16.63Z " /></g></svg>