<svg xmlns="http://www.w3.org/2000/svg" xmlns:xlink="http://www.w3.org/1999/xlink" width="72" height="72" viewBox="0 0 72 72" fill="none"><defs><rect id="path_0" x="0" y="0" width="36" height="36" /></defs><g opacity="1" transform="translate(0 0)  rotate(0 36 36)"><path id="矩形 7" fill-rule="evenodd" style="fill:#FFDEE6" transform="translate(0 0)  rotate(0 36 36)" opacity="1" d="M52.8,0C59.52,0 62.88,0 65.45,1.31a12,12 0 0,1 5.24,5.24C72,9.12 72,12.48 72,19.2 L72,52.8C72,59.52 72,62.88 70.69,65.45a12,12 0 0,1 -5.24,5.24C62.88,72 59.52,72 52.8,72 L19.2,72C12.48,72 9.12,72 6.55,70.69a12,12 0 0,1 -5.24,-5.24C0,62.88 0,59.52 0 52.8 L0,19.2C0,12.48 0,9.12 1.31,6.55a12,12 0 0,1 5.24,-5.24C9.12,0 12.48,0 19.2,0Z " /><g opacity="1" transform="translate(18 18)  rotate(0 18 18)"><mask id="bg-mask-0" fill="white"><use xlink:href="#path_0"></use></mask><g mask="url(#bg-mask-0)" ><path id="01" fill-rule="evenodd" style="fill:#E33C64" transform="translate(0 -3.255155966996881e-7)  rotate(0 18.012811394531248 17.93646549011911)" opacity="1" d="M30.75 16.68L28.19 16.68C27.94 16.65 27.69 16.73 27.5 16.9C27.32 17.06 27.21 17.3 27.21 17.55L27.21 31.7L25.44 31.7L25.44 3.51C25.44 1.57 23.87 0 21.93 0L7.02 0C5.12 0 3.57 1.51 3.51 3.41L3.51 31.59L1.31 31.59C0.59 31.59 0 32.18 0 32.9L0 34.67C0.05 35.35 0.62 35.87 1.31 35.87L34.67 35.87C35.01 35.89 35.35 35.76 35.61 35.53C35.86 35.29 36.01 34.96 36.03 34.62L36.03 32.85C36.03 32.13 35.44 31.54 34.72 31.54L32.52 31.54L32.52 19.24C32.52 18.01 32.03 16.68 30.75 16.68Z M17.6004 30.589L18.4704 30.589C18.9504 30.589 19.3404 30.199 19.3404 29.719L19.3404 27.159C19.3404 26.679 18.9504 26.289 18.4704 26.289L17.5504 26.289C17.0704 26.289 16.6804 26.679 16.6804 27.159L16.7304 29.719C16.7304 30.199 17.1204 30.589 17.6004 30.589Z M17.6004 24.4395L18.4704 24.4395C18.9504 24.4395 19.3404 24.0495 19.3404 23.5695L19.3404 21.0095C19.3404 20.5295 18.9504 20.1395 18.4704 20.1395L17.5504 20.1395C17.0704 20.1395 16.6804 20.5295 16.6804 21.0095L16.7304 23.5695C16.7304 24.0495 17.1204 24.4395 17.6004 24.4395Z M10.5798 30.589L11.4498 30.589C11.9298 30.589 12.3198 30.199 12.3198 29.719L12.3198 27.159C12.3198 26.679 11.9298 26.289 11.4498 26.289L10.5298 26.289C10.0498 26.289 9.65979 26.679 9.65979 27.159L9.70979 29.719C9.70979 30.199 10.0998 30.589 10.5798 30.589Z M10.5798 24.4395L11.4498 24.4395C11.9298 24.4395 12.3198 24.0495 12.3198 23.5695L12.3198 21.0095C12.3198 20.5295 11.9298 20.1395 11.4498 20.1395L10.5298 20.1395C10.0498 20.1395 9.65979 20.5295 9.65979 21.0095L9.70979 23.5695C9.70979 24.0495 10.0998 24.4395 10.5798 24.4395Z M12.2986 11.4003L12.2986 13.6103C12.2986 14.3303 12.8886 14.9103 13.6086 14.9103L15.3786 14.9103C16.0986 14.9103 16.6786 14.3303 16.6786 13.6103L16.6786 11.4003L18.8886 11.4003C19.6086 11.4003 20.1886 10.8203 20.1886 10.1003L20.2386 8.20032C20.2386 7.48032 19.6586 6.89032 18.9386 6.89032L16.6786 6.89032L16.6786 4.82032C16.6786 4.10032 16.0986 3.51032 15.3786 3.51032L13.6086 3.51032C12.8886 3.51032 12.2986 4.10032 12.2986 4.82032L12.2986 7.02032L10.0986 7.02032C9.37861 7.02032 8.78861 7.61032 8.78861 8.33032L8.78861 10.1003C8.78861 10.8203 9.37861 11.4003 10.0986 11.4003L12.2986 11.4003Z " /></g></g></g></svg>