<svg xmlns="http://www.w3.org/2000/svg" xmlns:xlink="http://www.w3.org/1999/xlink" width="72" height="72" viewBox="0 0 72 72" fill="none"><g opacity="1" transform="translate(0 0)  rotate(0 36 36)"><path id="矩形 7" fill-rule="evenodd" style="fill:#FFCFCF" transform="translate(0 0)  rotate(0 36 36)" opacity="1" d="M52.8,0C59.52,0 62.88,0 65.45,1.31a12,12 0 0,1 5.24,5.24C72,9.12 72,12.48 72,19.2 L72,52.8C72,59.52 72,62.88 70.69,65.45a12,12 0 0,1 -5.24,5.24C62.88,72 59.52,72 52.8,72 L19.2,72C12.48,72 9.12,72 6.55,70.69a12,12 0 0,1 -5.24,-5.24C0,62.88 0,59.52 0 52.8 L0,19.2C0,12.48 0,9.12 1.31,6.55a12,12 0 0,1 5.24,-5.24C9.12,0 12.48,0 19.2,0Z " /><path id="icon_政府机关" fill-rule="evenodd" style="fill:#FF0000" transform="translate(18 19.098587813527956)  rotate(0 18 16.90141218647203)" opacity="1" d="M33.4913 29.93L31.1313 29.93L31.1313 27.95L5.08125 27.95L5.08125 29.93L2.80125 29.93L2.80125 31.83L1.06125 31.83L1.06125 33.8L35.1713 33.8L35.1713 31.83L33.4913 31.83L33.4913 29.93Z M5.38634 13.7534C4.58634 13.7534 3.94634 14.3934 3.94634 15.1934L3.94634 16.4834L5.15634 16.4834L5.15634 26.3634L10.7063 26.3634L10.7063 16.4834L11.8463 16.4834L11.8463 15.1934C11.8463 14.3934 11.2063 13.7534 10.4063 13.7534L5.38634 13.7534Z M32.3533 15.1934C32.3533 14.3934 31.7133 13.7534 30.9133 13.7534L25.8933 13.7534C25.0933 13.7534 24.4533 14.3934 24.4533 15.1934L24.4533 16.4834L25.6633 16.4834L25.6633 26.3634L31.1433 26.3634L31.1433 16.4834L32.3533 16.4834L32.3533 15.1934Z M20.8866 26.3634L20.8866 16.4834L22.0966 16.4834L22.0966 15.1934C22.0966 14.3934 21.4566 13.7534 20.6566 13.7534L15.6366 13.7534C14.8366 13.7534 14.1966 14.3934 14.1966 15.1934L14.1966 16.4834L15.3366 16.4834L15.3366 26.3634L20.8866 26.3634Z M16.68 0.34L1.58 8.69C0.6 9.24 0 10.26 0 11.37L0 12.3L36 12.3L36 11.37C36 10.26 35.4 9.23 34.42 8.69L19.31 0.34C18.49 -0.11 17.5 -0.11 16.68 0.34Z M23.7125 8.20162C23.8625 8.20162 23.9925 8.10162 24.0325 7.96162C24.0625 7.81162 24.0025 7.66162 23.8725 7.59162L19.3025 5.06162C18.4825 4.61162 17.4925 4.61162 16.6725 5.06162L12.1125 7.59162C11.9825 7.66162 11.9125 7.81162 11.9525 7.96162C11.9925 8.10162 12.1225 8.20162 12.2725 8.20162L23.7125 8.20162Z " /></g></svg>