<svg xmlns="http://www.w3.org/2000/svg" xmlns:xlink="http://www.w3.org/1999/xlink" width="72" height="72" viewBox="0 0 72 72" fill="none"><defs><rect id="path_0" x="0" y="0" width="36" height="36" /></defs><g opacity="1" transform="translate(0 0)  rotate(0 36 36)"><path id="矩形 7" fill-rule="evenodd" style="fill:#E6F1FF" transform="translate(0 0)  rotate(0 36 36)" opacity="1" d="M52.8,0C59.52,0 62.88,0 65.45,1.31a12,12 0 0,1 5.24,5.24C72,9.12 72,12.48 72,19.2 L72,52.8C72,59.52 72,62.88 70.69,65.45a12,12 0 0,1 -5.24,5.24C62.88,72 59.52,72 52.8,72 L19.2,72C12.48,72 9.12,72 6.55,70.69a12,12 0 0,1 -5.24,-5.24C0,62.88 0,59.52 0 52.8 L0,19.2C0,12.48 0,9.12 1.31,6.55a12,12 0 0,1 5.24,-5.24C9.12,0 12.48,0 19.2,0Z " /><g opacity="1" transform="translate(18 18)  rotate(0 18 18)"><mask id="bg-mask-0" fill="white"><use xlink:href="#path_0"></use></mask><g mask="url(#bg-mask-0)" ><path id="分组 1" fill-rule="evenodd" style="fill:#2A82E4" transform="translate(0 0.000007036569815710436)  rotate(0 17.977824073646016 17.999999366266433)" opacity="1" d="M2.84 35.15C3.15 35.62 3.67 35.92 4.23 35.95L8.24 35.95L8.24 19.29L27.67 19.29L27.67 35.98C29.21 36.04 30.76 35.98 32.29 35.8C33.17 35.35 33.71 34.42 33.65 33.43L33.65 13.11L34.89 13.11C35.59 13.11 35.95 12.67 35.95 11.91L35.95 10.02C35.99 9.48 35.67 8.99 35.18 8.79C29.63 5.92 24.07 3.02 18.46 0.16C18.1 -0.05 17.65 -0.05 17.3 0.16C11.96 3.02 6.55 5.8 1.17 8.55C0.66 8.82 0.19 9.02 0 9.66L0 12.3C0.16 12.87 0.73 13.23 1.32 13.14C1.65 13.11 1.99 13.11 2.33 13.14L2.33 33.31C2.29 33.97 2.47 34.61 2.84 35.15Z M11.6203 11.7826C11.6203 11.5026 11.5103 11.4126 11.2403 11.4126L6.17028 11.4126C5.90028 11.4126 5.80028 11.4726 5.80028 11.7826L5.80028 13.5426C5.80028 13.9026 5.90028 14.0226 6.22028 14.0226L11.2103 14.0226C11.5003 14.0226 11.6003 13.9026 11.6003 13.5826C11.5603 13.0126 11.6003 12.3826 11.6203 11.7826Z M20.4938 11.4088L15.4238 11.4088C15.1538 11.4088 15.0538 11.5288 15.0538 11.8288L15.0538 13.5388C15.0538 13.8988 15.1538 14.0188 15.4738 14.0188L20.5438 14.0188C20.8238 14.0188 20.9338 13.9488 20.9338 13.6288L20.9338 11.8288C20.9338 11.5288 20.7638 11.3788 20.4938 11.4088Z M29.8568 14.0465C29.9968 14.0665 30.1368 13.9965 30.2168 13.8665C30.2368 13.7765 30.2368 13.6765 30.2168 13.5865L30.2768 11.8365C30.2968 11.7165 30.2568 11.5965 30.1768 11.5165C30.0868 11.4265 29.9668 11.3865 29.8568 11.4165L24.8268 11.4165C24.5468 11.4165 24.4568 11.5365 24.4568 11.8965L24.4568 13.5665C24.4568 13.9465 24.5768 14.0465 24.9168 14.0465L29.8568 14.0465Z " /><path id="路径 5" fill-rule="evenodd" style="fill:#2A82E4" transform="translate(10.463591936403645 23.784720890625067)  rotate(0 7.485165297348158 1.4079666621093754)" opacity="1" d="M14.83,0.19C14.73,0.08 14.59,0.01 14.44,0L0.54,0C0.39,0.01 0.25,0.08 0.15,0.19C0.04,0.3 -0.01,0.45 0,0.6L0,2.22C-0.01,2.37 0.04,2.52 0.15,2.63C0.25,2.74 0.39,2.81 0.54,2.82L14.46,2.82C14.61,2.81 14.75,2.75 14.85,2.63C14.94,2.52 14.99,2.37 14.96,2.22L14.96,0.6C14.98,0.45 14.93,0.3 14.83,0.19Z " /><path id="路径 6" fill-rule="evenodd" style="fill:#2A82E4" transform="translate(10.463591936403645 28.457971945312465)  rotate(0 7.485165297348158 1.4079666621093754)" opacity="1" d="M0.15,2.63C0.25,2.74 0.39,2.81 0.54,2.82L14.46,2.82C14.61,2.81 14.75,2.75 14.85,2.63C14.94,2.52 14.99,2.37 14.96,2.22L14.96,0.6C14.98,0.45 14.93,0.3 14.83,0.19C14.73,0.08 14.59,0.01 14.44,0L0.54,0C0.39,0.01 0.25,0.08 0.15,0.19C0.04,0.3 -0.01,0.45 0,0.6L0,2.22C-0.01,2.37 0.04,2.52 0.15,2.63Z " /><path id="路径 7" fill-rule="evenodd" style="fill:#2A82E4" transform="translate(10.463591936403645 33.14620135546875)  rotate(0 7.4841780860818234 1.4154558398437507)" opacity="1" d="M0.54,2.83L14.46,2.83C14.61,2.82 14.74,2.76 14.84,2.64C14.94,2.53 14.98,2.38 14.96,2.23L14.96,0.6C14.98,0.45 14.93,0.3 14.83,0.19C14.73,0.08 14.59,0.01 14.44,0L0.54,0C0.39,0.01 0.25,0.08 0.15,0.19C0.04,0.3 -0.01,0.45 0,0.6L0,2.23C-0.01,2.38 0.04,2.53 0.15,2.64C0.25,2.76 0.39,2.82 0.54,2.83Z " /></g></g></g></svg>